<svg version="1.1" id="Layer_1" xmlns="http://www.w3.org/2000/svg" xmlns:xlink="http://www.w3.org/1999/xlink" x="0px" y="0px"
	 width="100%" viewBox="0 0 192 192" enable-background="new 0 0 192 192" xml:space="preserve">
<path fill="#FB8A9C" opacity="1.000000" stroke="none" 
	d="
M79.000000,193.000000 
	C77.611107,193.000000 76.222221,193.000000 74.439697,192.576797 
	C74.390640,184.122086 76.691956,176.725449 81.513672,169.910919 
	C83.710197,167.853012 85.700417,166.013763 87.481071,163.990112 
	C88.811050,162.478638 89.870445,160.729080 91.338890,158.901215 
	C95.707863,156.132629 99.836769,153.621353 103.859016,150.949524 
	C113.400803,144.611267 120.155472,136.230133 119.660194,124.294136 
	C119.206108,113.350616 122.032661,103.986397 129.087524,95.696808 
	C133.485367,90.529251 134.007629,84.722878 131.668167,78.344070 
	C131.110001,76.822136 131.771118,74.342026 132.736450,72.869820 
	C135.444901,68.739235 136.983093,64.349113 135.415695,59.668877 
	C134.666595,57.432083 132.575775,54.626118 130.575943,54.120110 
	C128.668594,53.637497 125.145584,55.184933 123.989006,56.934673 
	C120.934082,61.556320 116.924126,62.594028 111.927109,61.771751 
	C111.592796,60.984818 111.298004,60.491196 110.822502,59.718258 
	C107.093666,56.616833 103.545540,53.794720 99.993347,50.990524 
	C99.989288,51.008442 100.026657,51.011738 100.003052,50.704384 
	C99.650627,49.886730 99.321815,49.376434 98.984909,48.520744 
	C98.002327,47.110882 97.027847,46.046413 95.951935,44.631638 
	C95.000946,42.150211 94.442551,39.836449 93.243294,37.924709 
	C90.452126,33.475296 88.807152,27.737450 81.878876,26.902294 
	C76.661400,26.511692 71.821884,26.264320 66.992203,26.007954 
	C67.002045,25.998959 67.024216,25.983301 66.672134,26.046181 
	C62.056675,27.402702 59.444775,30.347303 58.937927,34.656284 
	C58.438122,38.905453 57.967972,43.318523 58.582489,47.498299 
	C59.375347,52.891121 61.034409,58.196190 62.719704,63.409992 
	C66.269447,74.391869 62.916504,83.296547 54.795544,91.121094 
	C54.332760,91.448486 54.133869,91.697296 53.996212,91.995697 
	C53.998959,91.998543 53.988522,91.989456 53.652367,92.054344 
	C51.514206,93.715027 49.712193,95.310814 47.566467,96.974426 
	C44.124332,99.334053 41.025913,101.625839 37.628845,104.073158 
	C27.109125,111.985062 19.143782,121.007370 20.054279,135.420975 
	C21.168253,140.159622 21.630325,144.801712 23.528183,148.754440 
	C27.974457,158.014832 33.108612,166.944931 37.968910,176.468216 
	C37.315693,182.285110 36.657845,187.642563 36.000000,193.000000 
	C24.340437,193.000000 12.680872,193.000000 1.015981,193.000000 
	C1.010654,129.046066 1.010654,65.092133 1.010654,1.069099 
	C64.914909,1.069099 128.829910,1.069099 192.872467,1.069099 
	C192.872467,64.875778 192.872467,128.751907 192.872467,193.000000 
	C157.313293,193.000000 121.625305,193.000000 85.414299,192.543945 
	C83.594124,180.661087 88.821732,171.466736 96.116966,162.269150 
	C86.582298,164.984924 79.407455,178.634827 79.000000,193.000000 
z"/>
<path fill="#F8DAD0" opacity="1.000000" stroke="none" 
	d="
M111.966637,62.065063 
	C116.924126,62.594028 120.934082,61.556320 123.989006,56.934673 
	C125.145584,55.184933 128.668594,53.637497 130.575943,54.120110 
	C132.575775,54.626118 134.666595,57.432083 135.415695,59.668877 
	C136.983093,64.349113 135.444901,68.739235 132.736450,72.869820 
	C131.771118,74.342026 131.110001,76.822136 131.668167,78.344070 
	C134.007629,84.722878 133.485367,90.529251 129.087524,95.696808 
	C122.032661,103.986397 119.206108,113.350616 119.660194,124.294136 
	C120.155472,136.230133 113.400803,144.611267 103.859016,150.949524 
	C99.836769,153.621353 95.707863,156.132629 91.011795,159.006393 
	C86.256966,162.532837 82.117790,165.769791 77.990433,169.004150 
	C78.002251,169.001556 78.007805,168.978027 77.767082,169.161285 
	C77.346100,169.903625 77.165840,170.462692 76.995918,171.013840 
	C77.006248,171.005905 77.018433,170.982895 76.695267,171.018066 
	C75.909355,171.706818 75.446602,172.360397 74.993942,173.008881 
	C75.004028,173.003799 75.009956,172.982010 74.661957,173.024536 
	C68.319946,178.367203 67.316734,185.748993 66.000000,193.000000 
	C60.977909,193.000000 55.955814,193.000000 50.406044,192.534576 
	C49.891773,180.610870 49.623055,169.143646 49.986588,157.696487 
	C50.495934,141.657578 58.375526,134.054459 74.318703,133.800674 
	C82.120705,133.676483 89.928871,133.989944 97.733192,133.939987 
	C101.203232,133.917786 104.735046,133.821014 108.125061,133.167725 
	C114.121468,132.012177 115.548409,129.559128 114.402168,123.649811 
	C113.585159,119.437805 112.818214,115.216095 112.365906,110.938263 
	C118.475128,107.590721 120.510376,101.924591 123.038429,96.572189 
	C122.646034,96.265457 122.253639,95.958733 121.861252,95.652000 
	C117.564522,99.377937 113.267784,103.103874 108.613609,106.939293 
	C104.842270,108.355972 101.465149,109.771088 98.007370,110.949547 
	C88.716095,114.116158 86.145302,112.599396 84.227287,102.998909 
	C84.097115,102.347343 84.021080,101.684975 84.025253,100.702087 
	C86.185600,97.654106 88.240562,94.931656 90.451859,92.002098 
	C86.987152,92.318924 84.102531,92.582710 81.164780,92.484291 
	C79.049988,90.736877 77.023712,89.294853 74.916695,87.982460 
	C72.815834,86.673912 69.430573,85.103462 72.359856,82.573700 
	C79.437767,76.461113 78.647858,69.425011 76.654800,61.594891 
	C73.540756,49.360771 73.689995,37.472481 82.256844,27.045523 
	C88.807152,27.737450 90.452126,33.475296 93.243294,37.924709 
	C94.442551,39.836449 95.000946,42.150211 95.995789,45.007240 
	C97.756630,48.829380 99.372185,51.925598 100.995590,55.010540 
	C101.003448,54.999260 100.976730,55.004768 100.983719,55.329185 
	C101.657692,56.443256 102.324684,57.232914 102.996666,58.010147 
	C103.001656,57.997723 102.977821,58.010063 103.139679,58.320183 
	C106.189911,59.775219 109.078270,60.920143 111.966637,62.065063 
M94.453125,80.027519 
	C96.729240,78.424622 99.333420,77.119446 101.159096,75.107765 
	C102.263756,73.890549 103.022118,71.107132 102.356857,69.891930 
	C101.707146,68.705093 98.606003,67.659515 97.363060,68.236542 
	C94.342575,69.638771 91.514359,71.760033 89.161263,74.138351 
	C88.274673,75.034439 88.260452,77.895180 89.048393,79.019119 
	C89.756111,80.028603 92.108513,79.885063 94.453125,80.027519 
M90.800400,53.034096 
	C91.183426,52.676556 91.566452,52.319012 91.949478,51.961472 
	C88.444763,48.288105 79.741447,50.387215 78.087036,56.009766 
	C82.321075,54.976864 86.202080,54.030079 90.800400,53.034096 
z"/>
<path fill="#F85673" opacity="1.000000" stroke="none" 
	d="
M81.878876,26.902294 
	C73.689995,37.472481 73.540756,49.360771 76.654800,61.594891 
	C78.647858,69.425011 79.437767,76.461113 72.359856,82.573700 
	C69.430573,85.103462 72.815834,86.673912 74.916695,87.982460 
	C77.023712,89.294853 79.049988,90.736877 81.003662,92.782532 
	C81.903732,95.971199 82.911804,98.499413 83.919861,101.027626 
	C84.021080,101.684975 84.097115,102.347343 84.227287,102.998909 
	C86.145302,112.599396 88.716095,114.116158 98.007370,110.949547 
	C101.465149,109.771088 104.842270,108.355972 108.873062,107.151001 
	C110.336281,108.501724 111.182610,109.750221 112.028931,110.998711 
	C112.818214,115.216095 113.585159,119.437805 114.402168,123.649811 
	C115.548409,129.559128 114.121468,132.012177 108.125061,133.167725 
	C104.735046,133.821014 101.203232,133.917786 97.733192,133.939987 
	C89.928871,133.989944 82.120705,133.676483 74.318703,133.800674 
	C58.375526,134.054459 50.495934,141.657578 49.986588,157.696487 
	C49.623055,169.143646 49.891773,180.610870 49.939182,192.534576 
	C47.629444,193.000000 45.258884,193.000000 42.467621,192.545944 
	C41.365993,188.067474 40.685074,184.043060 39.991989,179.673676 
	C39.307976,178.222061 38.636127,177.115402 37.964279,176.008759 
	C33.108612,166.944931 27.974457,158.014832 23.528183,148.754440 
	C21.630325,144.801712 21.168253,140.159622 20.390209,135.443329 
	C21.889776,135.737503 23.052877,136.419098 24.649059,137.354492 
	C24.780836,135.751663 24.893263,134.384171 25.024158,132.628479 
	C27.855793,126.496170 30.255434,120.495888 33.607178,115.085419 
	C36.519955,110.383553 40.509472,106.348701 44.016663,102.008316 
	C44.010181,101.997559 44.006554,102.018867 44.318764,101.990746 
	C45.168449,101.644913 45.705925,101.327209 46.457825,100.872444 
	C47.118309,100.231033 47.564365,99.726685 48.250969,99.032677 
	C48.999283,98.229424 49.507050,97.615822 50.349312,96.931305 
	C51.785381,95.236740 52.886951,93.613098 53.988522,91.989456 
	C53.988522,91.989456 53.998959,91.998543 54.195198,91.862991 
	C54.641293,91.522446 54.844467,91.278542 55.000954,90.995750 
	C62.916504,83.296547 66.269447,74.391869 62.719704,63.409992 
	C61.034409,58.196190 59.375347,52.891121 58.582489,47.498299 
	C57.967972,43.318523 58.438122,38.905453 58.937927,34.656284 
	C59.444775,30.347303 62.056675,27.402702 66.572296,26.261269 
	C66.892334,26.807722 66.960136,27.201967 67.027931,27.596210 
	C67.396805,27.389528 67.765686,27.182846 68.134560,26.976162 
	C67.750496,26.656424 67.366432,26.336685 66.982368,26.016945 
	C71.821884,26.264320 76.661400,26.511692 81.878876,26.902294 
M60.587292,35.293850 
	C60.471462,35.762238 60.355629,36.230625 60.239799,36.699013 
	C60.437244,36.736465 60.634686,36.773914 60.832130,36.811363 
	C60.900772,36.215694 60.969410,35.620022 61.416065,34.678459 
	C61.545235,34.202824 61.674400,33.727184 61.803566,33.251549 
	C61.587433,33.208393 61.371296,33.165237 61.155159,33.122082 
	C61.087860,33.733433 61.020561,34.344788 60.587292,35.293850 
M62.455063,30.504501 
	C62.455063,30.504501 62.544003,30.459074 62.455063,30.504501 
z"/>
<path fill="#F8D2CB" opacity="1.000000" stroke="none" 
	d="
M79.428467,193.000000 
	C79.407455,178.634827 86.582298,164.984924 96.116966,162.269150 
	C88.821732,171.466736 83.594124,180.661087 84.945641,192.543945 
	C83.285645,193.000000 81.571281,193.000000 79.428467,193.000000 
z"/>
<path fill="#F8D6CE" opacity="1.000000" stroke="none" 
	d="
M81.217392,170.050415 
	C76.691956,176.725449 74.390640,184.122086 74.023026,192.576797 
	C72.285645,193.000000 70.571281,193.000000 68.521713,192.614441 
	C70.460983,185.813248 72.735474,179.397629 75.009964,172.982010 
	C75.009956,172.982010 75.004028,173.003799 75.263321,172.887329 
	C76.021225,172.174866 76.519829,171.578873 77.018433,170.982895 
	C77.018433,170.982895 77.006248,171.005905 77.226929,170.822601 
	C77.634338,170.085556 77.821075,169.531784 78.007805,168.978027 
	C78.007805,168.978027 78.002251,169.001556 78.338394,169.045181 
	C79.522156,169.409332 80.369774,169.729874 81.217392,170.050415 
z"/>
<path fill="#F1A1A8" opacity="1.000000" stroke="none" 
	d="
M74.661957,173.024536 
	C72.735474,179.397629 70.460983,185.813248 68.093246,192.614441 
	C67.555557,193.000000 67.111107,193.000000 66.333328,193.000000 
	C67.316734,185.748993 68.319946,178.367203 74.661957,173.024536 
z"/>
<path fill="#F46279" opacity="1.000000" stroke="none" 
	d="
M37.968910,176.468216 
	C38.636127,177.115402 39.307976,178.222061 39.999821,180.123901 
	C39.679882,184.946060 39.339943,188.973038 39.000000,193.000000 
	C38.250000,193.000000 37.500000,193.000000 36.375000,193.000000 
	C36.657845,187.642563 37.315693,182.285110 37.968910,176.468216 
z"/>
<path fill="#FC8195" opacity="1.000000" stroke="none" 
	d="
M39.375000,193.000000 
	C39.339943,188.973038 39.679882,184.946060 40.011986,180.468872 
	C40.685074,184.043060 41.365993,188.067474 42.023460,192.545944 
	C41.250000,193.000000 40.500000,193.000000 39.375000,193.000000 
z"/>
<path fill="#F55E78" opacity="1.000000" stroke="none" 
	d="
M25.005690,133.016678 
	C24.893263,134.384171 24.780836,135.751663 24.649059,137.354492 
	C23.052877,136.419098 21.889776,135.737503 20.390747,135.033539 
	C19.143782,121.007370 27.109125,111.985062 37.834770,104.228706 
	C38.560555,104.488075 38.781765,104.747421 38.822338,105.288635 
	C34.105892,111.366302 29.178450,116.910492 25.217588,123.075661 
	C23.516647,125.723221 21.780605,129.654556 25.005690,133.016678 
z"/>
<path fill="#F1A1A8" opacity="1.000000" stroke="none" 
	d="
M81.513672,169.910919 
	C80.369774,169.729874 79.522156,169.409332 78.326569,169.047775 
	C82.117790,165.769791 86.256966,162.532837 90.723236,159.190704 
	C89.870445,160.729080 88.811050,162.478638 87.481071,163.990112 
	C85.700417,166.013763 83.710197,167.853012 81.513672,169.910919 
z"/>
<path fill="#F8C9C5" opacity="1.000000" stroke="none" 
	d="
M99.997421,50.972607 
	C103.545540,53.794720 107.093666,56.616833 110.443314,59.696297 
	C107.822495,59.305786 105.400162,58.657925 102.977821,58.010063 
	C102.977821,58.010063 103.001656,57.997723 102.982361,57.687061 
	C102.300964,56.585854 101.638847,55.795311 100.976730,55.004768 
	C100.976730,55.004768 101.003448,54.999260 100.952087,54.664604 
	C100.599625,53.210835 100.298523,52.091721 99.997421,50.972607 
z"/>
<path fill="#F36880" opacity="1.000000" stroke="none" 
	d="
M39.002975,105.006767 
	C38.781765,104.747421 38.560555,104.488075 38.133419,104.073174 
	C41.025913,101.625839 44.124332,99.334053 47.600105,97.009323 
	C47.977455,96.976395 48.042934,97.043167 48.030762,97.404686 
	C48.015869,98.251579 48.013142,98.736961 48.010422,99.222336 
	C47.564365,99.726685 47.118309,100.231033 46.135223,100.900772 
	C45.067642,101.383720 44.537098,101.701294 44.006554,102.018867 
	C44.006554,102.018867 44.010181,101.997559 43.689285,102.056526 
	C41.913250,103.079247 40.458115,104.043007 39.002975,105.006767 
z"/>
<path fill="#F29FA7" opacity="1.000000" stroke="none" 
	d="
M99.993355,50.990524 
	C100.298523,52.091721 100.599625,53.210835 100.944237,54.675888 
	C99.372185,51.925598 97.756630,48.829380 96.097214,45.357552 
	C97.027847,46.046413 98.002327,47.110882 99.029266,48.829224 
	C99.396698,49.992649 99.711678,50.502193 100.026657,51.011738 
	C100.026657,51.011738 99.989288,51.008442 99.993355,50.990524 
z"/>
<path fill="#F29FA7" opacity="1.000000" stroke="none" 
	d="
M103.139679,58.320183 
	C105.400162,58.657925 107.822495,59.305786 110.624023,59.975613 
	C111.298004,60.491196 111.592796,60.984818 111.927109,61.771751 
	C109.078270,60.920143 106.189911,59.775219 103.139679,58.320183 
z"/>
<path fill="#F36880" opacity="1.000000" stroke="none" 
	d="
M53.652367,92.054344 
	C52.886951,93.613098 51.785381,95.236740 50.020103,96.934616 
	C48.918575,97.020287 48.480755,97.031723 48.042934,97.043167 
	C48.042934,97.043167 47.977455,96.976395 47.943817,96.941498 
	C49.712193,95.310814 51.514206,93.715027 53.652367,92.054344 
z"/>
<path fill="#F8C9C5" opacity="1.000000" stroke="none" 
	d="
M100.003052,50.704384 
	C99.711678,50.502193 99.396698,49.992649 99.037369,49.174622 
	C99.321815,49.376434 99.650627,49.886730 100.003052,50.704384 
z"/>
<path fill="#F36880" opacity="1.000000" stroke="none" 
	d="
M54.795544,91.121094 
	C54.844467,91.278542 54.641293,91.522446 54.192451,91.860153 
	C54.133869,91.697296 54.332760,91.448486 54.795544,91.121094 
z"/>
<path fill="#FABCBD" opacity="1.000000" stroke="none" 
	d="
M94.094261,80.138840 
	C92.108513,79.885063 89.756111,80.028603 89.048393,79.019119 
	C88.260452,77.895180 88.274673,75.034439 89.161263,74.138351 
	C91.514359,71.760033 94.342575,69.638771 97.363060,68.236542 
	C98.606003,67.659515 101.707146,68.705093 102.356857,69.891930 
	C103.022118,71.107132 102.263756,73.890549 101.159096,75.107765 
	C99.333420,77.119446 96.729240,78.424622 94.094261,80.138840 
z"/>
<path fill="#F9BCBC" opacity="1.000000" stroke="none" 
	d="
M112.365906,110.938263 
	C111.182610,109.750221 110.336281,108.501724 109.230499,107.041519 
	C113.267784,103.103874 117.564522,99.377937 121.861252,95.652000 
	C122.253639,95.958733 122.646034,96.265457 123.038429,96.572189 
	C120.510376,101.924591 118.475128,107.590721 112.365906,110.938263 
z"/>
<path fill="#F0687D" opacity="1.000000" stroke="none" 
	d="
M90.441742,53.058697 
	C86.202080,54.030079 82.321075,54.976864 78.087036,56.009766 
	C79.741447,50.387215 88.444763,48.288105 91.949478,51.961472 
	C91.566452,52.319012 91.183426,52.676556 90.441742,53.058697 
z"/>
<path fill="#F7909E" opacity="1.000000" stroke="none" 
	d="
M84.025253,100.702087 
	C82.911804,98.499413 81.903732,95.971199 81.056793,93.144745 
	C84.102531,92.582710 86.987152,92.318924 90.451859,92.002098 
	C88.240562,94.931656 86.185600,97.654106 84.025253,100.702087 
z"/>
<path fill="#F29FA7" opacity="1.000000" stroke="none" 
	d="
M100.983719,55.329185 
	C101.638847,55.795311 102.300964,56.585854 102.977371,57.699486 
	C102.324684,57.232914 101.657692,56.443256 100.983719,55.329185 
z"/>
<path fill="#F1A1A8" opacity="1.000000" stroke="none" 
	d="
M76.695267,171.018066 
	C76.519829,171.578873 76.021225,172.174866 75.253235,172.892410 
	C75.446602,172.360397 75.909355,171.706818 76.695267,171.018066 
z"/>
<path fill="#F1A1A8" opacity="1.000000" stroke="none" 
	d="
M77.767082,169.161285 
	C77.821075,169.531784 77.634338,170.085556 77.216599,170.830536 
	C77.165840,170.462692 77.346100,169.903625 77.767082,169.161285 
z"/>
<path fill="#FA8295" opacity="1.000000" stroke="none" 
	d="
M38.822342,105.288635 
	C40.458115,104.043007 41.913250,103.079247 43.695766,102.067291 
	C40.509472,106.348701 36.519955,110.383553 33.607178,115.085419 
	C30.255434,120.495888 27.855793,126.496170 25.024158,132.628479 
	C21.780605,129.654556 23.516647,125.723221 25.217588,123.075661 
	C29.178450,116.910492 34.105892,111.366302 38.822342,105.288635 
z"/>
<path fill="#FB8A9C" opacity="1.000000" stroke="none" 
	d="
M66.992203,26.007952 
	C67.366432,26.336685 67.750496,26.656424 68.134560,26.976162 
	C67.765686,27.182846 67.396805,27.389528 67.027931,27.596210 
	C66.960136,27.201967 66.892334,26.807722 66.924377,26.198389 
	C67.024216,25.983301 67.002045,25.998959 66.992203,26.007952 
z"/>
<path fill="#FA8295" opacity="1.000000" stroke="none" 
	d="
M48.030762,97.404686 
	C48.480755,97.031723 48.918575,97.020287 49.685608,97.005539 
	C49.507050,97.615822 48.999283,98.229424 48.250969,99.032677 
	C48.013142,98.736961 48.015869,98.251579 48.030762,97.404686 
z"/>
<path fill="#FB8A9C" opacity="1.000000" stroke="none" 
	d="
M61.038048,35.024353 
	C60.969410,35.620022 60.900772,36.215694 60.832130,36.811363 
	C60.634686,36.773914 60.437244,36.736465 60.239799,36.699013 
	C60.355629,36.230625 60.471462,35.762238 60.790794,35.142891 
	C60.994293,34.991936 61.038048,35.024353 61.038048,35.024353 
z"/>
<path fill="#FB8A9C" opacity="1.000000" stroke="none" 
	d="
M60.973778,34.974037 
	C61.020561,34.344788 61.087860,33.733433 61.155159,33.122082 
	C61.371296,33.165237 61.587433,33.208393 61.803566,33.251549 
	C61.674400,33.727184 61.545235,34.202824 61.227058,34.851406 
	C61.038048,35.024353 60.994293,34.991936 60.973778,34.974037 
z"/>
<path fill="#FA8295" opacity="1.000000" stroke="none" 
	d="
M44.318764,101.990746 
	C44.537098,101.701294 45.067642,101.383720 45.920795,101.037827 
	C45.705925,101.327209 45.168449,101.644913 44.318764,101.990746 
z"/>
<path fill="#FB8A9C" opacity="1.000000" stroke="none" 
	d="
M62.499535,30.481789 
	C62.544003,30.459074 62.455063,30.504501 62.499535,30.481789 
z"/>
</svg>